<svg enable-background="new 88 37 186 185" height="185" viewBox="88 37 186 185" width="186" xmlns="http://www.w3.org/2000/svg"><path d="m175.126 120.989c-3.291 4.333-2.439 10.512 1.893 13.802 4.338 3.285 10.516 2.441 13.801-1.895 1.632-2.145 2.243-4.749 1.923-7.222-.308 1.125-.827 2.224-1.581 3.212-1.114 1.468-3.143 2.504-4.754 3.108.834-.557 1.592-1.26 2.228-2.098 2.152-2.842 2.923-8.282.289-10.808-3.926-3.758-10.512-2.441-13.799 1.901z"/><path d="m196.92 108.677c11.55 8.773 28.014 6.508 36.78-5.039 8.758-11.553 6.501-28.014-5.05-36.776-2.114-1.603-4.387-2.833-6.749-3.712 1.545.735 3.046 1.624 4.464 2.697 11.024 8.366 13.185 24.088 4.814 35.109-2.555 3.369-6.951 5.904-10.539 7.57 2.814-1.619 5.352-3.816 7.438-6.559 8.367-11.027 6.213-26.744-4.816-35.11-4.562-3.467-8.78-5.106-14.1-5.076-6.63.922-12.919 4.368-17.284 10.125-8.764 11.548-6.499 28.015 5.042 36.771z"/><path d="m134.206 101.441c8.277 11.911 24.631 14.842 36.536 6.574 11.906-8.277 14.837-24.634 6.567-36.535-.39-.552-.793-1.078-1.215-1.599.094.13.184.25.275.37 7.896 11.371 3.367 26.977-7.994 34.88-1.229.854-2.506 1.572-3.812 2.181.63-.36 1.254-.744 1.86-1.177 11.362-7.897 14.165-23.516 6.272-34.875-5.533-7.96-13.125-11.708-22.115-10.532-3.422.688-6.762 2.067-9.807 4.185-11.902 8.27-14.838 24.628-6.567 36.528z"/><path d="m247.244 149.175c4.551-13.067-.057-27.353-13.123-31.897-1.481-.51-2.978-.874-4.477-1.103-11.04-.208-21.445 6.621-25.272 17.616-4.763 13.692 2.474 28.649 16.166 33.418 13.694 4.77 28.651-2.468 33.416-16.165 4.005-11.51-.469-23.906-10.125-30.403 7.822 6.486 10.052 17.373 6.519 27.53-2.328 6.684-8.348 11.755-14.303 14.504 5.057-2.895 9.136-7.56 11.199-13.5z"/><path d="m208.499 175.425c.09-4.051-.758-7.914-2.328-11.371.673 2.343 1.007 4.832.952 7.388-.069 3.38-.811 6.582-2.085 9.493.905.041 1.816.064 2.73.079.432-1.8.692-3.663.731-5.589z"/><path d="m202.407 180.792c.996-2.603 1.558-5.378 1.619-8.34.168-8.075-1.225-15.207-8.2-20.032-3.809-2.312-8.255-3.681-13.025-3.78-10.042-.211-18.942 5.39-23.528 13.596 10.167 11.013 25.583 17.271 43.134 18.556z"/><path d="m207.768 181.013c-.914-.014-1.825-.038-2.73-.079-.881-.039-1.76-.08-2.631-.143-17.551-1.284-32.966-7.542-43.134-18.556-2.923-3.167-5.41-6.726-7.389-10.676 3.128 16.414 42.968 49.013 94.261 22.989-12.967 4.536-26.092 6.66-38.377 6.465z" fill="#fee019"/><g fill="none"><path d="m247.244 149.175c4.551-13.067-.057-27.353-13.123-31.897-1.481-.51-2.978-.874-4.477-1.103-11.04-.208-21.445 6.621-25.272 17.616-4.763 13.692 2.474 28.649 16.166 33.418 13.694 4.77 28.651-2.468 33.416-16.165 4.005-11.51-.469-23.906-10.125-30.403 7.822 6.486 10.052 17.373 6.519 27.53-2.328 6.684-8.348 11.755-14.303 14.504 5.057-2.895 9.136-7.56 11.199-13.5z"/><path d="m175.126 120.989c-3.291 4.333-2.439 10.512 1.893 13.802 4.338 3.285 10.516 2.441 13.801-1.895 1.632-2.145 2.243-4.749 1.923-7.222-.308 1.125-.827 2.224-1.581 3.212-1.114 1.468-3.143 2.504-4.754 3.108.834-.557 1.592-1.26 2.228-2.098 2.152-2.842 2.923-8.282.289-10.808-3.926-3.758-10.512-2.441-13.799 1.901z"/><path d="m208.499 175.425c.09-4.051-.758-7.914-2.328-11.371.673 2.343 1.007 4.832.952 7.388-.069 3.38-.811 6.582-2.085 9.493-.881-.039-1.76-.08-2.631-.143.996-2.603 1.558-5.378 1.619-8.34.168-8.075-1.225-15.207-8.2-20.032-3.809-2.312-8.255-3.681-13.025-3.78-10.042-.211-18.942 5.39-23.528 13.596-2.923-3.167-5.41-6.726-7.389-10.676 3.128 16.414 42.968 49.013 94.261 22.989-12.967 4.536-26.092 6.66-38.377 6.465.432-1.8.692-3.663.731-5.589z"/><path d="m134.206 101.441c8.277 11.911 24.631 14.842 36.536 6.574 11.906-8.277 14.837-24.634 6.567-36.535-.39-.552-.793-1.078-1.215-1.599.094.13.184.25.275.37 7.896 11.371 3.367 26.977-7.994 34.88-1.229.854-2.506 1.572-3.812 2.181.63-.36 1.254-.744 1.86-1.177 11.362-7.897 14.165-23.516 6.272-34.875-5.533-7.96-13.125-11.708-22.115-10.532-3.422.688-6.762 2.067-9.807 4.185-11.902 8.27-14.838 24.628-6.567 36.528z"/><path d="m196.92 108.677c11.55 8.773 28.014 6.508 36.78-5.039 8.758-11.553 6.501-28.014-5.05-36.776-2.114-1.603-4.387-2.833-6.749-3.712 1.545.735 3.046 1.624 4.464 2.697 11.024 8.366 13.185 24.088 4.814 35.109-2.555 3.369-6.951 5.904-10.539 7.57 2.814-1.619 5.352-3.816 7.438-6.559 8.367-11.027 6.213-26.744-4.816-35.11-4.562-3.467-8.78-5.106-14.1-5.076-6.63.922-12.919 4.368-17.284 10.125-8.764 11.548-6.499 28.015 5.042 36.771z"/><path d="m154.167 128.171c0-.406-1.213-.137-1.213-.137s-.471 1.62-1.48 1.35c-1.014-.271-1.014-.877-2.024-1.147s-2.089.135-2.089.135 2.494 2.966 4.65 2.158c2.156-.809 2.156-1.955 2.156-2.359z"/><path d="m142.5 140.569c.008 4.597 4.438 14.671 6.212 16.83-3.854-8.401.383-15.838.383-15.838-5.257 2.976-6.533-4.18-6.595-.992z"/></g><path d="m94.198 126.145c0 38.524 25.309 71.333 59.541 83.756-52.17-21.417-54.494-69.677-54.592-70.598-1.649-15.669 2.189-33.408 8.18-46.176.625-1.717-3.277 1.65-2.572.033 7.645-18.757 23.471-32.894 33.9-39.511-.499.404-.983.844-1.462 1.293-18.748 21.551-16.299 60.777-4.12 70.255.226.103.452.205.686.295 3.824 1.617 2.156-3.733-1.029-6.028 11.5 3.938 19.372-.292 25.848 4.333 12.264.62 7.293 10.604 5.183 12.121-.884-6.815-10.456 3.756-11.968 12.31-.176 1.002-.138 2.124.092 3.331 1.979 3.95 4.466 7.51 7.389 10.676 4.586-8.206 13.486-13.808 23.528-13.596 4.77.099 9.216 1.468 13.025 3.78 6.976 4.825 8.368 11.957 8.2 20.032-.062 2.962-.623 5.737-1.619 8.34.871.063 1.75.104 2.631.143 1.274-2.911 2.016-6.112 2.085-9.493.055-2.556-.279-5.045-.952-7.388 1.57 3.457 2.418 7.32 2.328 11.371-.038 1.926-.299 3.79-.73 5.588 12.285.195 25.41-1.929 38.377-6.465-.479 1.938-1.344 3.75-2.479 4.771 3.5-1.562 12.082-7.771 15.666-15.833-.5 3.667-2.25 9.417-4.5 12.167 12.481-9.814 17.427-34.737 17.549-34.956.715-4.703 1.09-9.559 1.09-14.551 0-49.198-40.143-89.081-89.335-89.081-4.465 0-8.842.292-13.118.848-43.398 5.976-76.822 43.197-76.822 88.233zm156.149 22.026c3.533-10.157 1.304-21.043-6.519-27.53 9.656 6.497 14.13 18.893 10.125 30.403-4.765 13.697-19.722 20.935-33.416 16.165-13.692-4.769-20.929-19.726-16.166-33.418 3.827-10.995 14.232-17.824 25.272-17.616 1.499.229 2.995.593 4.477 1.103 13.066 4.544 17.674 18.831 13.123 31.897-2.062 5.94-6.142 10.604-11.199 13.5 5.956-2.749 11.975-7.82 14.303-14.504zm-58.469-76.264c4.365-5.758 10.654-9.203 17.284-10.125 5.319-.03 9.537 1.609 14.1 5.076 11.029 8.366 13.184 24.083 4.816 35.11-2.086 2.743-4.623 4.94-7.438 6.559 3.588-1.667 7.984-4.202 10.539-7.57 8.37-11.021 6.21-26.743-4.814-35.109-1.418-1.073-2.919-1.962-4.464-2.697 2.362.88 4.635 2.109 6.749 3.712 11.551 8.762 13.808 25.223 5.05 36.776-8.767 11.546-25.23 13.812-36.78 5.039-11.541-8.757-13.806-25.224-5.042-36.771zm-2.954 47.183c2.634 2.525 1.863 7.965-.289 10.808-.636.838-1.394 1.541-2.228 2.098 1.611-.604 3.64-1.64 4.754-3.108.754-.989 1.273-2.087 1.581-3.212.32 2.473-.291 5.077-1.923 7.222-3.285 4.336-9.463 5.18-13.801 1.895-4.332-3.29-5.184-9.469-1.893-13.802 3.288-4.344 9.874-5.661 13.799-1.901zm-38.343-58.36c8.99-1.176 16.582 2.571 22.115 10.532 7.893 11.359 5.09 26.978-6.272 34.875-.606.433-1.23.817-1.86 1.177 1.307-.609 2.584-1.327 3.812-2.181 11.361-7.903 15.89-23.509 7.994-34.88-.092-.12-.182-.24-.275-.37.422.521.825 1.047 1.215 1.599 8.27 11.9 5.339 28.257-6.567 36.535-11.905 8.268-28.259 5.337-36.536-6.574-8.271-11.901-5.335-28.259 6.568-36.526 3.044-2.12 6.384-3.499 9.806-4.187z" fill="#fff"/><path d="m137.193 54.943c-1.789 1.678-3.447 3.656-4.956 5.884-13.162 19.446-15.24 57.06.836 64.371-12.179-9.478-14.628-48.704 4.12-70.255z" fill="#fee019"/><path d="m254.833 175.652c2.25-2.75 4-8.5 4.5-12.167-3.584 8.062-12.166 14.271-15.666 15.833 1.135-1.021 2-2.833 2.479-4.771-51.293 26.024-91.133-6.575-94.261-22.989-.229-1.207-.268-2.329-.092-3.331 1.512-8.554 11.084-19.125 11.968-12.31 2.11-1.517 7.081-11.501-5.183-12.121-6.476-4.625-14.348-.395-25.848-4.333 3.186 2.295 4.854 7.646 1.029 6.028-.233-.091-.46-.193-.686-.295-16.076-7.311-13.998-44.925-.836-64.371 1.509-2.228 3.167-4.206 4.956-5.884.479-.45.963-.89 1.462-1.293-10.43 6.617-26.256 20.754-33.9 39.511-.705 1.617 3.197-1.75 2.572-.033-5.99 12.769-9.829 30.507-8.18 46.176.098.921 2.422 49.181 54.592 70.598-34.232-12.424-59.541-45.232-59.541-83.756 0-45.036 33.424-82.257 76.819-88.233.062-.008.12-.021.181-.029-46.35 4.677-82.525 43.807-82.525 91.387 0 50.73 41.979 91.853 92.711 91.853 46.816 0 85.31-35.03 90.988-80.312.015-.1.016-.124.01-.114-.123.219-5.068 25.142-17.549 34.956zm-106.121-18.253c-1.773-2.159-6.204-12.233-6.212-16.83.062-3.188 1.338 3.968 6.595.992 0 0-4.237 7.437-.383 15.838zm-1.352-29.027s1.078-.405 2.089-.135 1.011.876 2.024 1.147c1.01.27 1.48-1.35 1.48-1.35s1.213-.269 1.213.137c0 .404 0 1.55-2.156 2.359-2.156.808-4.65-2.158-4.65-2.158z"/><path d="m154.167 128.171c0-.406-1.213-.137-1.213-.137s-.471 1.62-1.48 1.35c-1.014-.271-1.014-.877-2.024-1.147s-2.089.135-2.089.135 2.494 2.966 4.65 2.158c2.156-.809 2.156-1.955 2.156-2.359z" fill="#fee019"/><path d="m142.5 140.569c.008 4.597 4.438 14.671 6.212 16.83-3.854-8.401.383-15.838.383-15.838-5.257 2.976-6.533-4.18-6.595-.992z" fill="#fee019"/></svg>